<svg xmlns="http://www.w3.org/2000/svg" viewBox="0 0 1766.7 264.62"><g id="fb140e00-e52a-46ad-b75a-5a691837b062" data-name="Layer 2"><g id="fa8beeb4-140b-4a12-beca-484c1a07fc67" data-name="Mathwei Logo"><g id="b6f38075-68e5-4fde-88e7-72c5253e2cdc" data-name="background"><path d="M0,210.83a49.34,49.34,0,0,0,49.33,49.33H201a49.34,49.34,0,0,0,49.34-49.33V134.31H0Z" fill="#b71918"/><path d="M201,9.85H49.33A49.34,49.34,0,0,0,0,59.19v75.12H250.31V59.19A49.34,49.34,0,0,0,201,9.85Z" fill="#db797a"/></g><polygon points="59.01 27.95 32.58 59.65 32.58 242.55 59.01 210.85 59.01 27.95" fill="#fff"/><polygon points="173.18 26.53 135.29 64.13 135.29 73.05 135.29 78.84 135.29 80.19 134.96 79.8 125 91.68 115.38 80.19 115.38 78.84 115.38 73.05 115.38 65.12 76.98 27.01 76.98 101.15 99.98 134.07 82.81 166.36 82.44 167.04 76.98 177.31 76.98 242.23 115.38 204.12 115.38 197.85 115.38 197.71 115.38 190.71 125 179.22 134.96 191.1 135.29 190.71 135.29 197.71 135.29 197.85 135.29 205.63 173.18 243.22 173.18 177.69 167.28 166.61 166.92 165.92 149.75 133.64 173.18 100.1 173.18 26.53" fill="#fff"/><polygon points="191.15 28.33 217.58 60.03 217.58 242.93 191.15 211.23 191.15 28.33" fill="#fff"/><polygon points="58.95 211 58.95 134.53 32.52 134.53 32.52 242.7 58.95 211" fill="#e79798"/><polygon points="82.38 167.2 76.92 177.47 76.92 242.38 115.32 204.28 115.32 198 115.32 197.86 115.32 190.86 124.94 179.37 134.9 191.26 135.23 190.86 135.23 197.86 135.23 198 135.23 205.78 173.12 243.38 173.12 177.84 167.22 166.76 166.86 166.08 150.08 134.53 99.76 134.53 82.75 166.51 82.38 167.2" fill="#e79798"/><polygon points="217.52 243.08 217.52 134.53 191.09 134.53 191.09 211.38 217.52 243.08" fill="#e79798"/></g><g id="e380ab01-3727-4e17-ac82-2d70654fb116" data-name="Mathwei Letters"><path d="M1376.86,64.7l-55.53,193.39h-61l-36.51-130.36-36.07,130.36H1126.2l-55-193.39h60.25L1162.16,198,1200.39,64.7h50.9L1287.64,198,1317.89,64.7Z" fill="#4a6aad"/><path d="M1500.06,237.6q-4.63,3.78-11.49,9.12a81.81,81.81,0,0,1-12.92,8.44,77.06,77.06,0,0,1-17.56,6.12,93.78,93.78,0,0,1-19.94,2q-25.53,0-42.76-17t-17.23-43.57q0-21.18,8.77-34.62t24.89-21.18q16-7.74,39.57-11t49-4.82v-1q0-16-12.13-22.13t-35.74-6.12a95.18,95.18,0,0,0-30.32,5.43q-16.11,5.41-23.13,8.35h-5.27V68.83q9.11-2.58,29.6-6.11a242.05,242.05,0,0,1,41.09-3.53q49,0,70.76,16.27T1557,126.52V258.09h-57Zm0-30.1V167.33q-11.65,1-25.21,2.84t-20.58,4.2q-8.62,2.92-13.17,8.5t-4.55,14.68a40.8,40.8,0,0,0,1,9.78,14.74,14.74,0,0,0,4.79,7.21,22.79,22.79,0,0,0,8.77,5.07c3.41,1.08,8.72,1.63,16,1.63a44.26,44.26,0,0,0,17.47-3.78A53.75,53.75,0,0,0,1500.06,207.5Z" fill="#4a6aad"/><path d="M1766.7,172.85H1635.22q1.27,22.72,16,34.78t43.48,12.06a91.38,91.38,0,0,0,35.26-7.06q17.07-7.06,27-15.16h6.39v49.77a202,202,0,0,1-36.7,12.23,178.26,178.26,0,0,1-38.14,3.79q-53.92,0-82.65-26.18t-28.72-74.57q0-47.86,27.21-75.86t74.59-28q43.71,0,65.74,23.85t22,68.63Zm-57.12-36.34q-.48-19.45-8.94-29.28t-26.33-9.81q-16.59,0-27.28,9.3t-12,29.79Z" fill="#4a6aad"/><path d="M535,259.61H475.94V93.27l-42.67,108h-41L349.64,93.27V259.61h-56V11.18h68.94l51.79,124.63L466,11.18H535Z" fill="#16387c"/><path d="M676.76,239.76q-4.49,3.68-11.13,8.84a80.34,80.34,0,0,1-12.52,8.18,74.89,74.89,0,0,1-17,5.92,90.91,90.91,0,0,1-19.33,1.92q-24.74,0-41.43-16.52t-16.69-42.21q0-20.52,8.5-33.54t24.12-20.52q15.45-7.52,38.33-10.68t47.46-4.67v-1q0-15.52-11.75-21.44t-34.62-5.92a92.37,92.37,0,0,0-29.38,5.25q-15.62,5.26-22.41,8.09h-5.1V76.25q8.81-2.5,28.67-5.92a234.17,234.17,0,0,1,39.81-3.42q47.46,0,68.56,15.76T732,132.14V259.61H676.76Zm0-29.16V171.68q-11.28,1-24.42,2.75T632.4,178.5q-8.35,2.83-12.76,8.24T615.24,201a39.67,39.67,0,0,0,.92,9.48,14.28,14.28,0,0,0,4.64,7,22.12,22.12,0,0,0,8.5,4.91q5,1.57,15.46,1.58a42.91,42.91,0,0,0,16.93-3.66A52.32,52.32,0,0,0,676.76,210.6Z" fill="#16387c"/><path d="M875.11,258a147.75,147.75,0,0,1-19,3.91,180.84,180.84,0,0,1-24.58,1.41q-32.46,0-48.31-14.18t-15.84-48.55V113H744.49V72.24h22.88V18.69h55.8V72.24h51.94V113H823.17v66.5q0,9.87.16,17.21a37.83,37.83,0,0,0,2.46,13.2,18.14,18.14,0,0,0,7.63,9.28q5.48,3.42,16,3.42a43.28,43.28,0,0,0,11.33-2,44.67,44.67,0,0,0,9.79-3.67h4.62Z" fill="#16387c"/><path d="M1063.73,259.61h-55.81V166.68q0-11.34-1.08-22.61t-3.71-16.6a19.18,19.18,0,0,0-9-9q-6-2.83-16.62-2.84a47.57,47.57,0,0,0-15.38,2.67,80,80,0,0,0-16.93,8.51V259.61H889.35V0h55.81V92.93Q960,80.42,973.64,73.75A68.19,68.19,0,0,1,1004,67.07q28.1,0,43.92,17.69t15.83,52.89Z" fill="#16387c"/></g></g></svg>