<svg xmlns="http://www.w3.org/2000/svg" viewBox="0 0 257.5 291.94"><g id="e15be39f-d34e-49cd-b06c-7ee6421fbdad" data-name="Layer 2"><g id="aa2f222d-a967-4a9c-a2bc-4becde864278" data-name="bubble"><g id="a9a59bdd-d778-4560-a5bc-54d68ccdbd21" data-name="background"><path d="M7.2,201a49.33,49.33,0,0,0,49.33,49.34H208.17A49.34,49.34,0,0,0,257.5,201V124.46H7.2Z" fill="#b71918"/><path d="M208.17,0H56.53A49.33,49.33,0,0,0,7.2,49.33v75.13H257.5V49.33A49.33,49.33,0,0,0,208.17,0Z" fill="#db797a"/></g><g id="a60a5014-13f3-49dc-995f-f5a58833377e" data-name="x logo"><polygon points="66.2 18.1 39.77 49.8 39.77 232.69 66.2 200.99 66.2 18.1" fill="#fff"/><polygon points="180.37 16.68 142.48 54.27 142.48 63.2 142.48 68.98 142.48 70.34 142.15 69.94 132.2 81.83 122.58 70.34 122.58 68.98 122.58 63.2 122.58 55.27 84.17 17.16 84.17 91.3 107.17 124.22 90 156.5 89.64 157.19 84.17 167.46 84.17 232.38 122.58 194.27 122.58 188 122.58 187.86 122.58 180.86 132.2 169.37 142.15 181.25 142.48 180.86 142.48 187.86 142.48 188 142.48 195.78 180.37 233.37 180.37 167.83 174.48 156.75 174.12 156.07 156.94 123.78 180.37 90.25 180.37 16.68" fill="#fff"/><polygon points="198.34 18.48 224.77 50.18 224.77 233.07 198.34 201.37 198.34 18.48" fill="#fff"/><polygon points="66.14 201.15 66.14 124.68 39.71 124.68 39.71 232.85 66.14 201.15" fill="#e79798"/><polygon points="89.58 157.34 84.11 167.62 84.11 232.53 122.52 194.42 122.52 188.15 122.52 188.01 122.52 181.01 132.14 169.52 142.09 181.41 142.42 181.01 142.42 188.01 142.42 188.15 142.42 195.93 180.31 233.52 180.31 167.99 174.42 156.91 174.06 156.22 157.28 124.68 106.95 124.68 89.94 156.66 89.58 157.34" fill="#e79798"/><polygon points="224.71 233.23 224.71 124.68 198.28 124.68 198.28 201.53 224.71 233.23" fill="#e79798"/></g><polygon points="59.72 284.26 59.72 248.06 95.93 248.06 95.93 248.49 104.97 239.46 52.48 186.97 0 239.46 52.48 291.94 60.16 284.26 59.72 284.26" fill="none"/><polygon points="59.72 248.06 59.72 284.26 60.16 284.26 95.93 248.49 95.93 248.06 59.72 248.06" fill="#b71918"/></g></g></svg>