<svg xmlns="http://www.w3.org/2000/svg" viewBox="0 0 193 193"><g id="f7e22d7b-3bd0-44dc-834d-cfd2604e45f1" data-name="Layer 2"><g id="e196703a-7a7f-494e-8c4a-f1f6ecd684ed" data-name="Question"><circle cx="96.5" cy="96.5" r="96.5" fill="#138dc3"/><path d="M86.29,129.62l-.42-5.37c-1.24-11.15,2.48-23.33,12.8-35.72,9.29-10.94,14.46-19,14.46-28.28,0-10.53-6.61-17.55-19.62-17.76-7.43,0-15.69,2.48-20.85,6.4l-5-13c6.82-5,18.59-8.26,29.53-8.26,23.74,0,34.48,14.66,34.48,30.35,0,14-7.85,24.15-17.76,35.92-9.08,10.74-12.39,19.82-11.77,30.35l.21,5.37Zm-4.55,28.91c0-7.64,5.17-13,12.39-13s12.18,5.37,12.18,13c0,7.22-4.75,12.8-12.39,12.8C86.7,171.33,81.74,165.75,81.74,158.53Z" fill="#fff"/></g></g></svg>